<?xml version="1.0" encoding="utf-8"?>
<!-- Generator: Adobe Illustrator 20.1.0, SVG Export Plug-In . SVG Version: 6.00 Build 0)  -->
<svg version="1.1" id="Layer_1" xmlns="http://www.w3.org/2000/svg" xmlns:xlink="http://www.w3.org/1999/xlink" x="0px" y="0px"
	 viewBox="0 0 524.9 284.3" style="enable-background:new 0 0 524.9 284.3;" xml:space="preserve">
<style type="text/css">
	.st0{fill:#888888;}
</style>
<g>
	<g>
		<path d="M0,220.1V138l21.7-3.1c9.6-1.3,17.2,0.6,22.9,5.9c5.7,5.3,8.6,13.2,8.7,23.8V178c0,10.8-2.8,19.7-8.5,26.6
			c-5.7,6.9-13.5,11.1-23.5,12.5L0,220.1z M16.6,149.5V204l5-0.7c5.5-0.8,9.4-2.8,11.7-6c2.3-3.2,3.4-8.4,3.6-15.6v-14.3
			c0-7.7-1.1-12.9-3.2-15.6c-2.1-2.7-5.8-3.8-10.9-3.2L16.6,149.5z"/>
		<path d="M123,169.1c0,11-2.6,19.9-7.8,26.7c-5.2,6.8-12.4,10.9-21.7,12.2c-9.2,1.3-16.4-0.7-21.7-6c-5.3-5.3-7.9-13.4-8-24.2v-14
			c0-11.3,2.6-20.4,7.8-27.5c5.2-7.1,12.5-11.3,21.8-12.6c9.1-1.3,16.3,0.8,21.6,6.3c5.3,5.5,7.9,13.8,8,25.1V169.1z M106.4,157.7
			c0-7.4-1.1-12.8-3.2-16.1s-5.4-4.7-9.8-4c-4.4,0.6-7.6,2.8-9.8,6.6c-2.1,3.8-3.2,9.2-3.3,16.3v14.6c0,7.2,1.1,12.3,3.2,15.4
			c2.1,3.1,5.4,4.3,9.9,3.7c4.3-0.6,7.5-2.7,9.6-6.3c2.1-3.6,3.2-8.9,3.2-15.9V157.7z"/>
		<path d="M156.6,116l15.5,57.2l15.4-61.5l21.6-3v82.1l-16.6,2.3v-22.2l1.5-34.4l-16.4,58.7l-11.3,1.6L150,142.6l1.5,34v22.2
			l-16.6,2.3V119L156.6,116z"/>
		<path d="M249.5,102.9l16.6-2.3v56.8c0,8-2.2,14.7-6.7,20.1c-4.4,5.4-10.1,8.6-17.1,9.6c-7.5,1.1-13.4-0.4-17.5-4.2
			c-4.2-3.9-6.3-9.8-6.3-17.8l16.6-2.3c0,7.7,2.4,11.3,7.2,10.6c4.8-0.7,7.2-5.5,7.2-14.4V102.9z"/>
		<path d="M332.5,91.3v56.8c-0.1,8.5-2.4,15.4-7,20.6c-4.6,5.2-11.3,8.4-19.9,9.6c-8.8,1.2-15.5-0.1-20.2-4c-4.6-3.9-7-10.2-7-18.9
			V98.9l16.7-2.3V153c0,4.7,0.8,7.9,2.3,9.7c1.5,1.8,4.2,2.4,8.2,1.8c3.9-0.6,6.7-1.9,8.1-4.1c1.5-2.2,2.2-5.5,2.3-10V93.6
			L332.5,91.3z"/>
		<path d="M345,171.6V89.5l21.7-3.1c9.6-1.3,17.2,0.6,22.9,5.9c5.7,5.3,8.6,13.2,8.7,23.8v13.3c0,10.8-2.8,19.7-8.5,26.6
			c-5.7,6.9-13.5,11.1-23.5,12.5L345,171.6z M361.6,101v54.5l5-0.7c5.5-0.8,9.4-2.8,11.7-6c2.3-3.2,3.4-8.4,3.6-15.6v-14.3
			c0-7.7-1.1-12.9-3.2-15.6c-2.1-2.7-5.8-3.8-10.9-3.2L361.6,101z"/>
		<path d="M466.1,145.3c-3.2,3.9-7.1,7.1-11.8,9.5c-4.6,2.4-9.7,4-15.3,4.8c-9.4,1.3-16.8-0.6-22-5.7c-5.2-5.1-7.9-13.2-8.1-24.4
			v-14.8c0-11.3,2.5-20.4,7.4-27.2c4.9-6.8,12.1-10.9,21.6-12.2c8.9-1.3,15.6,0,20.2,3.8c4.5,3.8,7.2,10.3,7.9,19.6l-16.1,2.3
			c-0.5-5.2-1.5-8.6-3.3-10.2c-1.7-1.7-4.4-2.2-8.1-1.7c-4.5,0.6-7.7,2.7-9.8,6.3c-2,3.6-3.1,8.9-3.2,16.1v14.9
			c0,7.5,1.1,12.8,3.4,15.8c2.2,3.1,5.9,4.3,11,3.6c3.3-0.5,5.9-1.5,7.9-3.1l1.5-1.2v-15.1l-11.6,1.6v-12.5l28.2-4V145.3z"/>
		<path d="M520.2,111.5l-25.8,3.6v21.8l30.6-4.3v13.8l-47.1,6.6V70.8l47-6.6V78l-30.4,4.3v19.4l25.8-3.6V111.5z"/>
	</g>
	<g>
		<path class="st0" d="M335.6,219.5l-4.1,0.6v-32.9l4.1-0.6V219.5z"/>
		<path class="st0" d="M348.2,184.8l8.6,25.6l8.6-28l5.3-0.7v32.9l-4.1,0.6v-12.8l0.4-12.9l-8.6,26.8l-3.2,0.4l-8.6-24.3l0.4,12.7
			v12.8l-4.1,0.6v-32.9L348.2,184.8z"/>
		<path class="st0" d="M381.9,200.1V213l-4.1,0.6v-32.9l10.5-1.5c1.6-0.2,3-0.2,4.2,0.2c1.2,0.3,2.3,0.9,3.1,1.7
			c0.8,0.8,1.5,1.8,1.9,2.9c0.4,1.2,0.6,2.5,0.6,3.9c0,1.6-0.2,3-0.6,4.3c-0.4,1.3-1.1,2.4-1.9,3.4c-0.8,1-1.9,1.7-3.1,2.4
			c-1.2,0.6-2.6,1-4.2,1.3L381.9,200.1z M381.9,196.6l6.3-0.9c1-0.1,1.9-0.4,2.6-0.8c0.7-0.4,1.3-0.9,1.8-1.6c0.5-0.6,0.8-1.3,1-2.2
			c0.2-0.8,0.3-1.7,0.3-2.6c0-0.8-0.1-1.6-0.3-2.4c-0.2-0.8-0.6-1.4-1-1.9c-0.5-0.5-1-0.9-1.8-1.2s-1.6-0.3-2.6-0.2l-6.3,0.9V196.6z
			"/>
		<path class="st0" d="M413.4,195.3l-5.8,0.8v13.3l-4.2,0.6v-32.9l9.2-1.3c3.2-0.5,5.7,0,7.3,1.5c1.7,1.4,2.5,3.8,2.5,7
			c0,2-0.4,3.9-1.3,5.5c-0.9,1.6-2.2,3-3.8,4l6.4,13.1v0.3l-4.4,0.6L413.4,195.3z M407.6,192.5l5-0.7c0.9-0.1,1.8-0.4,2.5-0.8
			c0.7-0.4,1.3-0.9,1.8-1.6c0.5-0.6,0.8-1.3,1.1-2.1c0.2-0.8,0.4-1.6,0.4-2.5c0-0.9-0.1-1.8-0.3-2.5c-0.2-0.7-0.5-1.4-1-1.9
			c-0.5-0.5-1-0.8-1.8-1c-0.7-0.2-1.6-0.2-2.6-0.1l-5.1,0.7V192.5z"/>
		<path class="st0" d="M449.4,190c0,2.3-0.3,4.4-0.8,6.2c-0.5,1.8-1.2,3.4-2.2,4.7c-0.9,1.3-2.1,2.3-3.5,3.1
			c-1.4,0.8-2.9,1.3-4.6,1.5c-1.7,0.2-3.2,0.2-4.5-0.2c-1.4-0.4-2.5-1.1-3.5-2.1c-1-1-1.7-2.4-2.3-4.1c-0.5-1.7-0.8-3.7-0.8-6v-5.7
			c0-2.3,0.3-4.4,0.8-6.2c0.5-1.8,1.3-3.4,2.2-4.7c1-1.3,2.1-2.4,3.5-3.2s2.9-1.3,4.5-1.5c1.7-0.2,3.2-0.2,4.6,0.2
			c1.4,0.4,2.5,1.1,3.5,2.2c1,1,1.7,2.4,2.2,4.1c0.5,1.7,0.8,3.7,0.8,6V190z M445.2,184.8c0-1.8-0.2-3.3-0.5-4.6
			c-0.3-1.3-0.7-2.3-1.3-3c-0.6-0.8-1.3-1.3-2.2-1.5c-0.9-0.3-1.9-0.3-3-0.2c-1.1,0.2-2,0.5-2.9,1c-0.9,0.5-1.6,1.2-2.2,2.1
			c-0.6,0.9-1.1,2.1-1.4,3.4c-0.3,1.3-0.5,2.9-0.5,4.7v5.8c0,1.8,0.2,3.4,0.5,4.6c0.3,1.3,0.8,2.3,1.4,3c0.6,0.8,1.3,1.3,2.2,1.5
			c0.9,0.3,1.8,0.3,2.9,0.2c1.1-0.2,2.1-0.5,3-1c0.9-0.5,1.6-1.2,2.2-2.1c0.6-0.9,1-2,1.3-3.4c0.3-1.3,0.4-2.9,0.4-4.7V184.8z"/>
		<path class="st0" d="M464.6,195l7.5-27.6l4.5-0.6l-10.2,34.3l-3.6,0.5l-10.2-31.4l4.5-0.6L464.6,195z"/>
		<path class="st0" d="M496.9,181.6l-11.6,1.6v11.7l13.6-1.9v3.5l-17.7,2.5v-32.9l17.5-2.5v3.6l-13.3,1.9v10.6l11.6-1.6V181.6z"/>
		<path class="st0" d="M504.1,195.8v-32.9l7.8-1.1c1.9-0.3,3.5-0.2,5,0.2s2.8,1.1,3.8,2.1c1.1,1,1.9,2.3,2.4,3.9
			c0.6,1.6,0.9,3.6,0.9,5.8v5.6c0,2.2-0.3,4.3-0.9,6c-0.6,1.8-1.4,3.3-2.5,4.6c-1.1,1.3-2.4,2.3-3.9,3.1c-1.6,0.8-3.3,1.3-5.3,1.6
			L504.1,195.8z M508.3,165.9v25.8l3.3-0.5c2.9-0.4,5.1-1.6,6.4-3.5c1.3-1.9,2-4.5,2-7.8v-5.6c0-3.5-0.7-5.9-2-7.3
			c-1.3-1.4-3.3-2-6-1.6L508.3,165.9z"/>
	</g>
</g>
</svg>
